Coordinates
version=1
nRows=19
nColumns=24
inDegrees=yes

Units are S.I. units (second, meters, Newtons, ...)
Angles are in degrees.

endheader
time	pelvis_tilt	pelvis_list	pelvis_rotation	pelvis_tx	pelvis_ty	pelvis_tz	hip_flexion_r	hip_adduction_r	hip_rotation_r	knee_angle_r	ankle_angle_r	subtalar_angle_r	mtp_angle_r	hip_flexion_l	hip_adduction_l	hip_rotation_l	knee_angle_l	ankle_angle_l	subtalar_angle_l	mtp_angle_l	lumbar_extension	lumbar_bending	lumbar_rotation
      4.76000000	     -4.66091295	     -7.66156917	      7.71190815	     -1.67315353	      0.69357419	      0.16482239	     15.47476070	     14.33568547	      1.17022419	    -17.04555729	     18.04131406	     -5.94226842	      0.00000000	     27.97000312	     -2.44189101	      9.83449764	    -66.50427970	      9.73871394	     -8.08423114	      0.00000000	    -11.35105040	      5.29879759	     -0.59808762
      4.77000000	     -4.71716805	     -7.17008116	      7.47815591	     -1.65993038	      0.69551136	      0.16533755	     13.26142878	     14.16465924	      2.70341406	    -15.33783212	     17.85253399	     -6.89239864	      0.00000000	     29.46900720	     -1.55950134	      9.91661281	    -64.48335548	      9.86063143	     -9.34634820	      0.00000000	    -11.39076203	      4.46641123	     -0.12661339
      4.78000000	     -4.64098954	     -6.69884215	      7.15801505	     -1.64661514	      0.69720413	      0.16591249	     10.82913172	     14.00403932	      4.50671669	    -13.50115548	     17.46732476	     -8.18130956	      0.00000000	     30.59453558	     -0.85890224	      9.86393655	    -62.01487064	      9.99555757	    -10.31080298	      0.00000000	    -11.57540841	      3.70287758	      0.35218244
      4.79000000	     -4.56940373	     -6.27981174	      6.79488201	     -1.63333222	      0.69843187	      0.16638838	      8.43181888	     13.81149445	      6.21244480	    -11.68820238	     17.06659230	     -9.42531902	      0.00000000	     31.53940878	     -0.28602946	      9.77057677	    -59.14711206	     10.05447869	    -11.10674564	      0.00000000	    -11.74666583	      3.06260753	      0.82328655
      4.80000000	     -4.45656183	     -5.92781324	      6.35683861	     -1.62005015	      0.69925144	      0.16682444	      5.99890336	     13.61639515	      7.97866663	     -9.87975789	     16.61210229	    -10.67892810	      0.00000000	     32.24248525	      0.11366604	      9.63084729	    -55.88711683	     10.12330745	    -11.62916919	      0.00000000	    -11.97703160	      2.56065645	      1.34992072
      4.81000000	     -4.35580747	     -5.65142125	      5.85986970	     -1.60680280	      0.69958951	      0.16720230	      3.64201391	     13.41681566	      9.62906111	     -8.15871304	     16.20415793	    -11.80792630	      0.00000000	     32.75851266	      0.35795465	      9.49042319	    -52.23042438	     10.22773142	    -11.91810790	      0.00000000	    -12.19530986	      2.19167106	      1.88695227
      4.82000000	     -4.26516402	     -5.43793704	      5.30123424	     -1.59354156	      0.69947428	      0.16754542	      1.35487972	     13.20708680	     11.16698492	     -6.53226896	     15.87777549	    -12.75898477	      0.00000000	     33.06345636	      0.45304462	      9.34194636	    -48.16430483	     10.36484376	    -12.01753049	      0.00000000	    -12.40909336	      1.93713759	      2.50417462
      4.83000000	     -4.20731592	     -5.28230833	      4.66990249	     -1.58025709	      0.69892118	      0.16787688	     -0.82342469	     12.98917274	     12.53710837	     -5.02914664	     15.67824546	    -13.46150872	      0.00000000	     33.15546657	      0.41630911	      9.25320455	    -43.67193964	     10.48598262	    -11.97513892	      0.00000000	    -12.59145268	      1.77654135	      3.14730978
      4.84000000	     -3.97562279	     -5.15091991	      4.15610603	     -1.56688629	      0.69814141	      0.16805669	     -3.19099787	     12.74859973	     13.96840773	     -3.50895875	     15.34471885	    -14.46936313	      0.00000000	     32.78285198	      0.36490228	      9.46581449	    -38.72242575	     10.61033464	    -11.87550792	      0.00000000	    -12.99820669	      1.68370600	      3.58274426
      4.85000000	     -4.10277662	     -5.16668721	      3.28748381	     -1.55353151	      0.69666762	      0.16850784	     -4.93383458	     12.60303930	     15.04753080	     -2.45751121	     15.49403228	    -14.47716201	      0.00000000	     32.50814652	     -0.00254455	      9.71233534	    -33.34658871	     10.45472820	    -12.08671477	      0.00000000	    -12.96191115	      1.73453248	      4.49603410
      4.86000000	     -3.80084699	     -5.11652134	      2.56539131	     -1.53996705	      0.69533400	      0.16879837	     -7.14590645	     12.36590720	     16.19320219	     -1.41991054	     15.60231393	    -14.77971312	      0.00000000	     31.37791198	     -0.29121453	     10.65761694	    -27.41935006	      9.97588152	    -12.92426821	      0.00000000	    -13.49171619	      1.72598541	      5.12218073
      4.87000000	     -3.83630861	     -5.18280233	      1.63803220	     -1.52606441	      0.69327173	      0.16934374	     -8.91889066	     12.18469778	     17.33829104	     -0.60113574	     15.90026727	    -14.64638800	      0.00000000	     30.33432600	     -0.86384085	     12.03361778	    -21.18621202	      8.84416900	    -14.68903964	      0.00000000	    -13.48458539	      1.80517230	      5.97055700
      4.88000000	     -3.47044133	     -5.48023380	      0.73618873	     -1.51220293	      0.69122141	      0.16996965	    -10.99090370	     12.24581941	     18.54365582	     -0.05900660	     16.23195792	    -14.54902812	      0.00000000	     28.61222036	     -1.81483772	     14.65700997	    -14.67005037	      6.70487775	    -18.33933666	      0.00000000	    -14.07286650	      2.14298612	      6.71665332
      4.89000000	     -3.41123286	     -6.14171061	     -0.26373595	     -1.49818225	      0.68837185	      0.17116040	    -12.60079121	     12.72438615	     19.62108257	      0.13793112	     16.62235418	    -14.21221034	      0.00000000	     27.30859143	     -3.46536637	     17.13732200	     -8.46814008	      4.04026903	    -22.53859253	      0.00000000	    -14.21656363	      2.80190504	      7.66694420
      4.90000000	     -3.62237102	     -7.12597695	     -1.18824586	     -1.48429824	      0.68487713	      0.17259707	    -13.76257824	     13.61048525	     20.48552199	     -0.02796162	     17.06720198	    -13.63900695	      0.00000000	     26.76752078	     -5.49776481	     18.25569754	     -3.30840713	      2.21257879	    -25.17949498	      0.00000000	    -14.07973542	      3.78804777	      8.55041595
      4.91000000	     -3.97183077	     -8.08749760	     -2.10188172	     -1.47029424	      0.68128889	      0.17400347	    -14.70863279	     14.46368055	     21.35684031	     -0.41362822	     17.46481265	    -13.04533753	      0.00000000	     26.72254851	     -7.32469213	     17.67201603	      0.71645100	      1.86049842	    -25.47890013	      0.00000000	    -13.77929074	      4.75096385	      9.36154905
      4.92000000	     -4.21503039	     -8.86199308	     -2.87838998	     -1.45600147	      0.67805057	      0.17499255	    -15.71689062	     15.08726166	     22.04261025	     -0.93449796	     17.83254849	    -12.25598395	      0.00000000	     26.65939870	     -8.68929936	     16.84070397	      3.89339149	      1.71246309	    -25.52068219	      0.00000000	    -13.59068246	      5.54904860	      9.94285465
      4.93000000	     -4.29323110	     -9.32032631	     -3.56278981	     -1.44135516	      0.67539847	      0.17564710	    -16.78907896	     15.34729153	     22.39946056	     -1.65185922	     18.28788936	    -11.02517379	      0.00000000	     26.47290842	     -9.47772883	     15.78876162	      6.18398639	      1.83434146	    -25.24673753	      0.00000000	    -13.54782529	      5.99242614	     10.33562545
      4.94000000	     -4.25018250	     -9.50796934	     -4.09509114	     -1.42632391	      0.67326150	      0.17599539	    -17.82816212	     15.34264761	     22.27736294	     -2.60865468	     18.69473641	     -9.48413531	      0.00000000	     26.22895335	     -9.76168797	     15.02312778	      7.56349799	      2.17216788	    -24.99173274	      0.00000000	    -13.57167851	      6.11873137	     10.57811704
